<svg xmlns="http://www.w3.org/2000/svg" viewBox="0 0 100 100" fill="currentColor" class="w-full h-full">
  <path d="M75.5,35.5c-1.5-2.5-4-3.5-6.5-3c-1.5,0.3-2.8,1.2-4.2,2c-1.2,0.7-2.5,1.5-4.3,1.5c-2,0-3.5-1.5-3.5-3.5c0-1.5,0.8-2.8,1.5-4
    c0.5-0.8,1-1.8,1-3c0-2.5-2-4.5-4.5-4.5S50.5,23,50.5,25.5c0,1,0.5,2,1,2.8c-2,1-4,3-5.5,5.2c-0.5-0.2-1-0.2-1.5-0.2
    c-3.5,0-6.5,2.5-7.2,6c-0.2,1-0.2,2,0,3c-2.5,1.5-5,4-6.5,7c-0.5,1-0.8,2.2-1,3.2c-2.5,0.5-4.8,1.8-6.2,3.8c-1.5,2-2,4.5-1.5,7
    c0.5,2.2,2,4,4,5.2V78c0,1.5,1.2,2.8,2.8,2.8h3c1.5,0,2.8-1.2,2.8-2.8v-7h4v7c0,1.5,1.2,2.8,2.8,2.8h3c1.5,0,2.8-1.2,2.8-2.8v-8
    c2,1,4.5,1.5,7,1.5c1.8,0,3.5-0.2,5-0.8v7.2c0,1.5,1.2,2.8,2.8,2.8h3c1.5,0,2.8-1.2,2.8-2.8v-7h4v7c0,1.5,1.2,2.8,2.8,2.8h3
    c1.5,0,2.8-1.2,2.8-2.8V60.5c1.2-1.8,2-4,2-6.2C81,49,79.5,43.5,75.5,35.5z M32.2,55.8c-0.8-1-1-2.5-0.5-3.8c0.5-1.2,1.8-2,3-2
    c0.5,0,1,0.2,1.5,0.5c0.5-1.5,1.5-2.8,3-3.8c1-0.5,2-1,3-1.2c0.2-1.8,1-3.5,2.2-4.8c1.2-1.2,2.8-2,4.5-2.2c0.5-1.8,1.5-3.2,3-4.2
    c1.2-0.8,2.5-1.2,4-1.2c0.5,0,1,0.2,1.5,0.2c0.8,2.5,2.8,4.5,5.2,5.5c-0.2,0.8-0.5,1.5-0.5,2.2c0,1.5,0.5,2.8,1.5,3.8
    c-1.5,2.5-2.5,5.2-2.8,8.2c-0.8,0.5-1.5,1.2-2,2c-0.5,0.8-0.8,1.8-0.8,2.8c0,1.5,0.5,2.8,1.5,4c-0.8,0-1.5,0.2-2.2,0.5
    C56.2,60.5,54,58.5,52.5,56c-0.5,1.5-1.5,2.8-2.8,3.5c-0.5,1.8-1.8,3.2-3.5,4c-0.8-0.5-1.8-0.8-2.8-0.8c-1.5,0-2.8,0.5-4,1.5
    C37,63.2,34.8,60,32.2,55.8z"/>
</svg>
