<svg xmlns="http://www.w3.org/2000/svg" viewBox="0 0 100 100" fill="currentColor" class="w-full h-full">
  <path d="M85,45c-2-5-8-8-15-8c-2,0-4,0.5-6,1.5c-3-4-8-7-14-7c-5,0-10,2-13,5c-2-1-4-1.5-6-1.5c-8,0-15,5-18,12
    c-3,1-5,3-6,6c-1,3-1,6,1,9c1,2,3,3,5,4c-1,2-1,4,0,6c1,3,4,5,7,6c2,1,4,1,6,0.5c2,2,5,3.5,8,3.5c2,0,4-0.5,6-1.5
    c2,2,5,3.5,9,3.5c3,0,6-1,8-3c2,1,4,1.5,7,1.5c5,0,9-2,12-6c2-0.5,4-1.5,5-3c2-2,3-5,2-8C89,51,88,48,85,45z M30,55
    c-1.5,0-3-0.5-4-1.5c-0.5-0.5-1-1.2-1-2s0.2-1.5,0.8-2c1.2-1.2,3-2,5-2c1.5,0,3,0.5,4,1.5c0.8,0.8,1.2,1.8,1.2,2.8
    C36,53.5,33.5,55,30,55z M45,60c-2,0-4-0.5-5.5-1.5c-1-0.8-1.5-2-1.5-3.5s0.5-2.8,1.5-3.5c2-1.5,5-2.5,8.5-2.5c2,0,4,0.5,5.5,1.5
    c1.2,1,1.8,2.2,1.8,3.8c0,1.2-0.5,2.5-1.5,3.5C51.5,59.2,48.5,60,45,60z M65,58c-2,0-4-0.5-5.5-1.5c-1.2-1-1.8-2.2-1.8-3.8
    c0-1.2,0.5-2.5,1.5-3.5c2-1.5,5-2.5,8.5-2.5c2,0,4,0.5,5.5,1.5c1,0.8,1.5,2,1.5,3.5c0,1.5-0.5,2.8-1.5,3.5C71,57,68.2,58,65,58z"/>
</svg>
